<mxfile host="app.diagrams.net" modified="2023-09-16T02:05:53.228Z" agent="Mozilla/5.0 (Windows NT 10.0; Win64; x64) AppleWebKit/537.36 (KHTML, like Gecko) Chrome/117.0.0.0 Safari/537.36" etag="f1iZUWKITCIQ4nQEnZuf" version="21.7.5" type="device">
  <diagram id="C5RBs43oDa-KdzZeNtuy" name="Page-1">
    <mxGraphModel dx="2229" dy="684" grid="1" gridSize="10" guides="1" tooltips="1" connect="1" arrows="1" fold="1" page="1" pageScale="1" pageWidth="827" pageHeight="1169" math="0" shadow="0">
      <root>
        <mxCell id="WIyWlLk6GJQsqaUBKTNV-0" />
        <mxCell id="WIyWlLk6GJQsqaUBKTNV-1" parent="WIyWlLk6GJQsqaUBKTNV-0" />
        <mxCell id="jS6DH8Dr9qwqQI3Xkxyg-0" value="&amp;lt;&amp;lt;abstract&amp;gt;&amp;gt;&lt;br&gt;Paquete" style="swimlane;fontStyle=1;align=center;verticalAlign=top;childLayout=stackLayout;horizontal=1;startSize=60;horizontalStack=0;resizeParent=1;resizeParentMax=0;resizeLast=0;collapsible=1;marginBottom=0;whiteSpace=wrap;html=1;fontSize=16;" parent="WIyWlLk6GJQsqaUBKTNV-1" vertex="1">
          <mxGeometry x="-50" y="1340" width="160" height="164" as="geometry" />
        </mxCell>
        <mxCell id="jS6DH8Dr9qwqQI3Xkxyg-1" value="+ productos : ArrayList&amp;lt;Producto&amp;gt;&lt;br&gt;" style="text;strokeColor=none;fillColor=none;align=left;verticalAlign=top;spacingLeft=4;spacingRight=4;overflow=hidden;rotatable=0;points=[[0,0.5],[1,0.5]];portConstraint=eastwest;whiteSpace=wrap;html=1;fontSize=16;" parent="jS6DH8Dr9qwqQI3Xkxyg-0" vertex="1">
          <mxGeometry y="60" width="160" height="104" as="geometry" />
        </mxCell>
        <mxCell id="jS6DH8Dr9qwqQI3Xkxyg-2" value="" style="line;strokeWidth=1;fillColor=none;align=left;verticalAlign=middle;spacingTop=-1;spacingLeft=3;spacingRight=3;rotatable=0;labelPosition=right;points=[];portConstraint=eastwest;strokeColor=inherit;fontSize=16;" parent="jS6DH8Dr9qwqQI3Xkxyg-0" vertex="1">
          <mxGeometry y="164" width="160" as="geometry" />
        </mxCell>
        <mxCell id="jS6DH8Dr9qwqQI3Xkxyg-10" value="Producto" style="swimlane;fontStyle=1;align=center;verticalAlign=top;childLayout=stackLayout;horizontal=1;startSize=26;horizontalStack=0;resizeParent=1;resizeParentMax=0;resizeLast=0;collapsible=1;marginBottom=0;whiteSpace=wrap;html=1;fontSize=16;" parent="WIyWlLk6GJQsqaUBKTNV-1" vertex="1">
          <mxGeometry x="441" y="1360" width="160" height="196" as="geometry" />
        </mxCell>
        <mxCell id="jS6DH8Dr9qwqQI3Xkxyg-11" value="- nombre: String&lt;br&gt;- precio: float&lt;br&gt;- tamaño : String&lt;br&gt;- SKU : String&lt;br&gt;- stock: int&lt;br&gt;-categoría: Categoria" style="text;strokeColor=none;fillColor=none;align=left;verticalAlign=top;spacingLeft=4;spacingRight=4;overflow=hidden;rotatable=0;points=[[0,0.5],[1,0.5]];portConstraint=eastwest;whiteSpace=wrap;html=1;fontSize=16;" parent="jS6DH8Dr9qwqQI3Xkxyg-10" vertex="1">
          <mxGeometry y="26" width="160" height="170" as="geometry" />
        </mxCell>
        <mxCell id="jS6DH8Dr9qwqQI3Xkxyg-12" value="" style="line;strokeWidth=1;fillColor=none;align=left;verticalAlign=middle;spacingTop=-1;spacingLeft=3;spacingRight=3;rotatable=0;labelPosition=right;points=[];portConstraint=eastwest;strokeColor=inherit;fontSize=16;" parent="jS6DH8Dr9qwqQI3Xkxyg-10" vertex="1">
          <mxGeometry y="196" width="160" as="geometry" />
        </mxCell>
        <mxCell id="jS6DH8Dr9qwqQI3Xkxyg-16" value="ProductoPeligroso" style="swimlane;fontStyle=1;align=center;verticalAlign=top;childLayout=stackLayout;horizontal=1;startSize=26;horizontalStack=0;resizeParent=1;resizeParentMax=0;resizeLast=0;collapsible=1;marginBottom=0;whiteSpace=wrap;html=1;fontSize=16;" parent="WIyWlLk6GJQsqaUBKTNV-1" vertex="1">
          <mxGeometry x="580" y="1634" width="180" height="130" as="geometry" />
        </mxCell>
        <mxCell id="jS6DH8Dr9qwqQI3Xkxyg-17" value="- manipulacion: String&lt;br&gt;- uso: String&lt;br&gt;- transporte: String" style="text;strokeColor=none;fillColor=none;align=left;verticalAlign=top;spacingLeft=4;spacingRight=4;overflow=hidden;rotatable=0;points=[[0,0.5],[1,0.5]];portConstraint=eastwest;whiteSpace=wrap;html=1;fontSize=16;" parent="jS6DH8Dr9qwqQI3Xkxyg-16" vertex="1">
          <mxGeometry y="26" width="180" height="104" as="geometry" />
        </mxCell>
        <mxCell id="jS6DH8Dr9qwqQI3Xkxyg-18" value="" style="line;strokeWidth=1;fillColor=none;align=left;verticalAlign=middle;spacingTop=-1;spacingLeft=3;spacingRight=3;rotatable=0;labelPosition=right;points=[];portConstraint=eastwest;strokeColor=inherit;fontSize=16;" parent="jS6DH8Dr9qwqQI3Xkxyg-16" vertex="1">
          <mxGeometry y="130" width="180" as="geometry" />
        </mxCell>
        <mxCell id="e-FcHB3rJm0YQ8q_vhJP-3" value="" style="endArrow=block;endSize=10;endFill=0;shadow=0;strokeWidth=1;rounded=0;edgeStyle=elbowEdgeStyle;elbow=vertical;exitX=0.417;exitY=-0.017;exitDx=0;exitDy=0;entryX=0.502;entryY=1.008;entryDx=0;entryDy=0;entryPerimeter=0;exitPerimeter=0;" parent="WIyWlLk6GJQsqaUBKTNV-1" target="jS6DH8Dr9qwqQI3Xkxyg-11" edge="1" source="jS6DH8Dr9qwqQI3Xkxyg-16">
          <mxGeometry width="160" relative="1" as="geometry">
            <mxPoint x="596" y="1735.17" as="sourcePoint" />
            <mxPoint x="436" y="1625.17" as="targetPoint" />
            <Array as="points">
              <mxPoint x="546" y="1610" />
            </Array>
          </mxGeometry>
        </mxCell>
        <mxCell id="e-FcHB3rJm0YQ8q_vhJP-4" value="" style="endArrow=block;endSize=10;endFill=0;shadow=0;strokeWidth=1;rounded=0;edgeStyle=elbowEdgeStyle;elbow=vertical;exitX=0.5;exitY=0;exitDx=0;exitDy=0;entryX=0.501;entryY=1.002;entryDx=0;entryDy=0;entryPerimeter=0;" parent="WIyWlLk6GJQsqaUBKTNV-1" edge="1" target="jS6DH8Dr9qwqQI3Xkxyg-11" source="e-FcHB3rJm0YQ8q_vhJP-8">
          <mxGeometry width="160" relative="1" as="geometry">
            <mxPoint x="366" y="1725.17" as="sourcePoint" />
            <mxPoint x="500" y="1560" as="targetPoint" />
            <Array as="points">
              <mxPoint x="436" y="1610" />
            </Array>
          </mxGeometry>
        </mxCell>
        <mxCell id="e-FcHB3rJm0YQ8q_vhJP-5" value="Cliente" style="swimlane;fontStyle=1;align=center;verticalAlign=top;childLayout=stackLayout;horizontal=1;startSize=26;horizontalStack=0;resizeParent=1;resizeParentMax=0;resizeLast=0;collapsible=1;marginBottom=0;whiteSpace=wrap;html=1;fontSize=16;" parent="WIyWlLk6GJQsqaUBKTNV-1" vertex="1">
          <mxGeometry x="110" y="584" width="200" height="130" as="geometry" />
        </mxCell>
        <mxCell id="e-FcHB3rJm0YQ8q_vhJP-6" value="-nombre: String&lt;br&gt;-cedula: int&lt;br&gt;-fecha_nacimiento:String&lt;br&gt;-email: String&lt;br&gt;-celular: int" style="text;strokeColor=none;fillColor=none;align=left;verticalAlign=top;spacingLeft=4;spacingRight=4;overflow=hidden;rotatable=0;points=[[0,0.5],[1,0.5]];portConstraint=eastwest;whiteSpace=wrap;html=1;fontSize=16;" parent="e-FcHB3rJm0YQ8q_vhJP-5" vertex="1">
          <mxGeometry y="26" width="200" height="104" as="geometry" />
        </mxCell>
        <mxCell id="e-FcHB3rJm0YQ8q_vhJP-7" value="" style="line;strokeWidth=1;fillColor=none;align=left;verticalAlign=middle;spacingTop=-1;spacingLeft=3;spacingRight=3;rotatable=0;labelPosition=right;points=[];portConstraint=eastwest;strokeColor=inherit;fontSize=16;" parent="e-FcHB3rJm0YQ8q_vhJP-5" vertex="1">
          <mxGeometry y="130" width="200" as="geometry" />
        </mxCell>
        <mxCell id="e-FcHB3rJm0YQ8q_vhJP-8" value="ProductoPerecedero" style="swimlane;fontStyle=1;align=center;verticalAlign=top;childLayout=stackLayout;horizontal=1;startSize=26;horizontalStack=0;resizeParent=1;resizeParentMax=0;resizeLast=0;collapsible=1;marginBottom=0;whiteSpace=wrap;html=1;fontSize=16;" parent="WIyWlLk6GJQsqaUBKTNV-1" vertex="1">
          <mxGeometry x="290" y="1634" width="160" height="130" as="geometry" />
        </mxCell>
        <mxCell id="e-FcHB3rJm0YQ8q_vhJP-9" value="- duracion: int" style="text;strokeColor=none;fillColor=none;align=left;verticalAlign=top;spacingLeft=4;spacingRight=4;overflow=hidden;rotatable=0;points=[[0,0.5],[1,0.5]];portConstraint=eastwest;whiteSpace=wrap;html=1;fontSize=16;" parent="e-FcHB3rJm0YQ8q_vhJP-8" vertex="1">
          <mxGeometry y="26" width="160" height="104" as="geometry" />
        </mxCell>
        <mxCell id="e-FcHB3rJm0YQ8q_vhJP-10" value="" style="line;strokeWidth=1;fillColor=none;align=left;verticalAlign=middle;spacingTop=-1;spacingLeft=3;spacingRight=3;rotatable=0;labelPosition=right;points=[];portConstraint=eastwest;strokeColor=inherit;fontSize=16;" parent="e-FcHB3rJm0YQ8q_vhJP-8" vertex="1">
          <mxGeometry y="130" width="160" as="geometry" />
        </mxCell>
        <mxCell id="e-FcHB3rJm0YQ8q_vhJP-0" value="PaqueteSurtido" style="swimlane;fontStyle=1;align=center;verticalAlign=top;childLayout=stackLayout;horizontal=1;startSize=26;horizontalStack=0;resizeParent=1;resizeParentMax=0;resizeLast=0;collapsible=1;marginBottom=0;whiteSpace=wrap;html=1;fontSize=16;" parent="WIyWlLk6GJQsqaUBKTNV-1" vertex="1">
          <mxGeometry x="-150" y="1560" width="160" height="130" as="geometry" />
        </mxCell>
        <mxCell id="e-FcHB3rJm0YQ8q_vhJP-1" value="- SkuGenerado : String" style="text;strokeColor=none;fillColor=none;align=left;verticalAlign=top;spacingLeft=4;spacingRight=4;overflow=hidden;rotatable=0;points=[[0,0.5],[1,0.5]];portConstraint=eastwest;whiteSpace=wrap;html=1;fontSize=16;" parent="e-FcHB3rJm0YQ8q_vhJP-0" vertex="1">
          <mxGeometry y="26" width="160" height="104" as="geometry" />
        </mxCell>
        <mxCell id="e-FcHB3rJm0YQ8q_vhJP-2" value="" style="line;strokeWidth=1;fillColor=none;align=left;verticalAlign=middle;spacingTop=-1;spacingLeft=3;spacingRight=3;rotatable=0;labelPosition=right;points=[];portConstraint=eastwest;strokeColor=inherit;fontSize=16;" parent="e-FcHB3rJm0YQ8q_vhJP-0" vertex="1">
          <mxGeometry y="130" width="160" as="geometry" />
        </mxCell>
        <mxCell id="AUQUITsB97ih77B1ykuN-0" value="Cajero" style="swimlane;fontStyle=1;align=center;verticalAlign=top;childLayout=stackLayout;horizontal=1;startSize=26;horizontalStack=0;resizeParent=1;resizeParentMax=0;resizeLast=0;collapsible=1;marginBottom=0;whiteSpace=wrap;html=1;fontSize=16;" vertex="1" parent="WIyWlLk6GJQsqaUBKTNV-1">
          <mxGeometry x="390" y="585" width="160" height="130" as="geometry" />
        </mxCell>
        <mxCell id="AUQUITsB97ih77B1ykuN-1" value="- nombre: String&lt;br&gt;- cedula: int&lt;br&gt;- contraseña: String" style="text;strokeColor=none;fillColor=none;align=left;verticalAlign=top;spacingLeft=4;spacingRight=4;overflow=hidden;rotatable=0;points=[[0,0.5],[1,0.5]];portConstraint=eastwest;whiteSpace=wrap;html=1;fontSize=16;" vertex="1" parent="AUQUITsB97ih77B1ykuN-0">
          <mxGeometry y="26" width="160" height="104" as="geometry" />
        </mxCell>
        <mxCell id="AUQUITsB97ih77B1ykuN-2" value="" style="line;strokeWidth=1;fillColor=none;align=left;verticalAlign=middle;spacingTop=-1;spacingLeft=3;spacingRight=3;rotatable=0;labelPosition=right;points=[];portConstraint=eastwest;strokeColor=inherit;fontSize=16;" vertex="1" parent="AUQUITsB97ih77B1ykuN-0">
          <mxGeometry y="130" width="160" as="geometry" />
        </mxCell>
        <mxCell id="AUQUITsB97ih77B1ykuN-3" value="Administrador" style="swimlane;fontStyle=1;align=center;verticalAlign=top;childLayout=stackLayout;horizontal=1;startSize=26;horizontalStack=0;resizeParent=1;resizeParentMax=0;resizeLast=0;collapsible=1;marginBottom=0;whiteSpace=wrap;html=1;fontSize=16;" vertex="1" parent="WIyWlLk6GJQsqaUBKTNV-1">
          <mxGeometry x="634" y="585" width="160" height="130" as="geometry" />
        </mxCell>
        <mxCell id="AUQUITsB97ih77B1ykuN-4" value="- nombre : String&lt;br&gt;- contraseña : String" style="text;strokeColor=none;fillColor=none;align=left;verticalAlign=top;spacingLeft=4;spacingRight=4;overflow=hidden;rotatable=0;points=[[0,0.5],[1,0.5]];portConstraint=eastwest;whiteSpace=wrap;html=1;fontSize=16;" vertex="1" parent="AUQUITsB97ih77B1ykuN-3">
          <mxGeometry y="26" width="160" height="104" as="geometry" />
        </mxCell>
        <mxCell id="AUQUITsB97ih77B1ykuN-5" value="" style="line;strokeWidth=1;fillColor=none;align=left;verticalAlign=middle;spacingTop=-1;spacingLeft=3;spacingRight=3;rotatable=0;labelPosition=right;points=[];portConstraint=eastwest;strokeColor=inherit;fontSize=16;" vertex="1" parent="AUQUITsB97ih77B1ykuN-3">
          <mxGeometry y="130" width="160" as="geometry" />
        </mxCell>
        <mxCell id="AUQUITsB97ih77B1ykuN-7" value="PaqueteMismo" style="swimlane;fontStyle=1;align=center;verticalAlign=top;childLayout=stackLayout;horizontal=1;startSize=26;horizontalStack=0;resizeParent=1;resizeParentMax=0;resizeLast=0;collapsible=1;marginBottom=0;whiteSpace=wrap;html=1;fontSize=16;" vertex="1" parent="WIyWlLk6GJQsqaUBKTNV-1">
          <mxGeometry x="50" y="1560" width="160" height="130" as="geometry" />
        </mxCell>
        <mxCell id="AUQUITsB97ih77B1ykuN-8" value="- Sku: String" style="text;strokeColor=none;fillColor=none;align=left;verticalAlign=top;spacingLeft=4;spacingRight=4;overflow=hidden;rotatable=0;points=[[0,0.5],[1,0.5]];portConstraint=eastwest;whiteSpace=wrap;html=1;fontSize=16;" vertex="1" parent="AUQUITsB97ih77B1ykuN-7">
          <mxGeometry y="26" width="160" height="104" as="geometry" />
        </mxCell>
        <mxCell id="AUQUITsB97ih77B1ykuN-9" value="" style="line;strokeWidth=1;fillColor=none;align=left;verticalAlign=middle;spacingTop=-1;spacingLeft=3;spacingRight=3;rotatable=0;labelPosition=right;points=[];portConstraint=eastwest;strokeColor=inherit;fontSize=16;" vertex="1" parent="AUQUITsB97ih77B1ykuN-7">
          <mxGeometry y="130" width="160" as="geometry" />
        </mxCell>
        <mxCell id="AUQUITsB97ih77B1ykuN-10" value="Inventario" style="swimlane;fontStyle=1;align=center;verticalAlign=top;childLayout=stackLayout;horizontal=1;startSize=26;horizontalStack=0;resizeParent=1;resizeParentMax=0;resizeLast=0;collapsible=1;marginBottom=0;whiteSpace=wrap;html=1;fontSize=16;" vertex="1" parent="WIyWlLk6GJQsqaUBKTNV-1">
          <mxGeometry x="545" y="1010" width="260" height="130" as="geometry" />
        </mxCell>
        <mxCell id="AUQUITsB97ih77B1ykuN-11" value="- categorias: ArrayList &amp;lt;Categoria&amp;gt;" style="text;strokeColor=none;fillColor=none;align=left;verticalAlign=top;spacingLeft=4;spacingRight=4;overflow=hidden;rotatable=0;points=[[0,0.5],[1,0.5]];portConstraint=eastwest;whiteSpace=wrap;html=1;fontSize=16;" vertex="1" parent="AUQUITsB97ih77B1ykuN-10">
          <mxGeometry y="26" width="260" height="104" as="geometry" />
        </mxCell>
        <mxCell id="AUQUITsB97ih77B1ykuN-12" value="" style="line;strokeWidth=1;fillColor=none;align=left;verticalAlign=middle;spacingTop=-1;spacingLeft=3;spacingRight=3;rotatable=0;labelPosition=right;points=[];portConstraint=eastwest;strokeColor=inherit;fontSize=16;" vertex="1" parent="AUQUITsB97ih77B1ykuN-10">
          <mxGeometry y="130" width="260" as="geometry" />
        </mxCell>
        <mxCell id="AUQUITsB97ih77B1ykuN-13" value="Sistema" style="swimlane;fontStyle=1;align=center;verticalAlign=top;childLayout=stackLayout;horizontal=1;startSize=26;horizontalStack=0;resizeParent=1;resizeParentMax=0;resizeLast=0;collapsible=1;marginBottom=0;whiteSpace=wrap;html=1;fontSize=16;" vertex="1" parent="WIyWlLk6GJQsqaUBKTNV-1">
          <mxGeometry x="424" y="780" width="300" height="150" as="geometry" />
        </mxCell>
        <mxCell id="AUQUITsB97ih77B1ykuN-14" value="- administrador: Administrador&lt;br&gt;-cajeros: ArrayList&amp;lt;Cajero&amp;gt;&lt;br&gt;-clientes: ArrayList&amp;lt;Cliente&amp;gt;" style="text;strokeColor=none;fillColor=none;align=left;verticalAlign=top;spacingLeft=4;spacingRight=4;overflow=hidden;rotatable=0;points=[[0,0.5],[1,0.5]];portConstraint=eastwest;whiteSpace=wrap;html=1;fontSize=16;" vertex="1" parent="AUQUITsB97ih77B1ykuN-13">
          <mxGeometry y="26" width="300" height="124" as="geometry" />
        </mxCell>
        <mxCell id="AUQUITsB97ih77B1ykuN-15" value="" style="line;strokeWidth=1;fillColor=none;align=left;verticalAlign=middle;spacingTop=-1;spacingLeft=3;spacingRight=3;rotatable=0;labelPosition=right;points=[];portConstraint=eastwest;strokeColor=inherit;fontSize=16;" vertex="1" parent="AUQUITsB97ih77B1ykuN-13">
          <mxGeometry y="150" width="300" as="geometry" />
        </mxCell>
        <mxCell id="AUQUITsB97ih77B1ykuN-16" value="PointOfSale" style="swimlane;fontStyle=1;align=center;verticalAlign=top;childLayout=stackLayout;horizontal=1;startSize=26;horizontalStack=0;resizeParent=1;resizeParentMax=0;resizeLast=0;collapsible=1;marginBottom=0;whiteSpace=wrap;html=1;fontSize=16;" vertex="1" parent="WIyWlLk6GJQsqaUBKTNV-1">
          <mxGeometry x="344" y="1010" width="160" height="130" as="geometry" />
        </mxCell>
        <mxCell id="AUQUITsB97ih77B1ykuN-18" value="" style="line;strokeWidth=1;fillColor=none;align=left;verticalAlign=middle;spacingTop=-1;spacingLeft=3;spacingRight=3;rotatable=0;labelPosition=right;points=[];portConstraint=eastwest;strokeColor=inherit;fontSize=16;" vertex="1" parent="AUQUITsB97ih77B1ykuN-16">
          <mxGeometry y="26" width="160" as="geometry" />
        </mxCell>
        <mxCell id="AUQUITsB97ih77B1ykuN-17" value="- fecha : String&lt;br&gt;- datosCompra: Compra&lt;br&gt;" style="text;strokeColor=none;fillColor=none;align=left;verticalAlign=top;spacingLeft=4;spacingRight=4;overflow=hidden;rotatable=0;points=[[0,0.5],[1,0.5]];portConstraint=eastwest;whiteSpace=wrap;html=1;fontSize=16;" vertex="1" parent="AUQUITsB97ih77B1ykuN-16">
          <mxGeometry y="26" width="160" height="104" as="geometry" />
        </mxCell>
        <mxCell id="AUQUITsB97ih77B1ykuN-19" value="Categoría" style="swimlane;fontStyle=1;align=center;verticalAlign=top;childLayout=stackLayout;horizontal=1;startSize=26;horizontalStack=0;resizeParent=1;resizeParentMax=0;resizeLast=0;collapsible=1;marginBottom=0;whiteSpace=wrap;html=1;fontSize=16;" vertex="1" parent="WIyWlLk6GJQsqaUBKTNV-1">
          <mxGeometry x="970.83" y="1054.66" width="250" height="130" as="geometry" />
        </mxCell>
        <mxCell id="AUQUITsB97ih77B1ykuN-101" style="edgeStyle=none;rounded=0;orthogonalLoop=1;jettySize=auto;html=1;fontSize=12;startSize=8;endSize=8;exitX=1.006;exitY=0.749;exitDx=0;exitDy=0;exitPerimeter=0;" edge="1" parent="AUQUITsB97ih77B1ykuN-19" source="AUQUITsB97ih77B1ykuN-20">
          <mxGeometry relative="1" as="geometry">
            <mxPoint x="249.16999999999996" y="35.33999999999992" as="targetPoint" />
            <Array as="points">
              <mxPoint x="349.16999999999996" y="104.33999999999992" />
              <mxPoint x="349.16999999999996" y="35.33999999999992" />
            </Array>
          </mxGeometry>
        </mxCell>
        <mxCell id="AUQUITsB97ih77B1ykuN-102" value="subcategoria" style="edgeLabel;html=1;align=center;verticalAlign=middle;resizable=0;points=[];fontSize=16;" vertex="1" connectable="0" parent="AUQUITsB97ih77B1ykuN-101">
          <mxGeometry x="-0.4419" y="1" relative="1" as="geometry">
            <mxPoint x="32" y="16" as="offset" />
          </mxGeometry>
        </mxCell>
        <mxCell id="AUQUITsB97ih77B1ykuN-104" value="0.. 1" style="edgeLabel;html=1;align=center;verticalAlign=middle;resizable=0;points=[];fontSize=20;" vertex="1" connectable="0" parent="AUQUITsB97ih77B1ykuN-101">
          <mxGeometry x="-0.29" y="5" relative="1" as="geometry">
            <mxPoint x="41" as="offset" />
          </mxGeometry>
        </mxCell>
        <mxCell id="AUQUITsB97ih77B1ykuN-20" value="- nombre_categoria : String&lt;br&gt;- productos: ArrayList&amp;lt;Producto&amp;gt;" style="text;strokeColor=none;fillColor=none;align=left;verticalAlign=top;spacingLeft=4;spacingRight=4;overflow=hidden;rotatable=0;points=[[0,0.5],[1,0.5]];portConstraint=eastwest;whiteSpace=wrap;html=1;fontSize=16;" vertex="1" parent="AUQUITsB97ih77B1ykuN-19">
          <mxGeometry y="26" width="250" height="104" as="geometry" />
        </mxCell>
        <mxCell id="AUQUITsB97ih77B1ykuN-21" value="" style="line;strokeWidth=1;fillColor=none;align=left;verticalAlign=middle;spacingTop=-1;spacingLeft=3;spacingRight=3;rotatable=0;labelPosition=right;points=[];portConstraint=eastwest;strokeColor=inherit;fontSize=16;" vertex="1" parent="AUQUITsB97ih77B1ykuN-19">
          <mxGeometry y="130" width="250" as="geometry" />
        </mxCell>
        <mxCell id="AUQUITsB97ih77B1ykuN-25" value="&amp;lt;&amp;lt;abstract&amp;gt;&amp;gt;&lt;br&gt;Compra" style="swimlane;fontStyle=1;align=center;verticalAlign=top;childLayout=stackLayout;horizontal=1;startSize=51;horizontalStack=0;resizeParent=1;resizeParentMax=0;resizeLast=0;collapsible=1;marginBottom=0;whiteSpace=wrap;html=1;fontSize=16;" vertex="1" parent="WIyWlLk6GJQsqaUBKTNV-1">
          <mxGeometry x="-20" y="1090" width="200" height="216" as="geometry" />
        </mxCell>
        <mxCell id="AUQUITsB97ih77B1ykuN-26" value="- idCompra : int&lt;br&gt;-precioTotal: float&lt;br&gt;-medioDePago: String&lt;br&gt;- cliente: Cliente" style="text;strokeColor=none;fillColor=none;align=left;verticalAlign=top;spacingLeft=4;spacingRight=4;overflow=hidden;rotatable=0;points=[[0,0.5],[1,0.5]];portConstraint=eastwest;whiteSpace=wrap;html=1;fontSize=16;" vertex="1" parent="AUQUITsB97ih77B1ykuN-25">
          <mxGeometry y="51" width="200" height="165" as="geometry" />
        </mxCell>
        <mxCell id="AUQUITsB97ih77B1ykuN-27" value="" style="line;strokeWidth=1;fillColor=none;align=left;verticalAlign=middle;spacingTop=-1;spacingLeft=3;spacingRight=3;rotatable=0;labelPosition=right;points=[];portConstraint=eastwest;strokeColor=inherit;fontSize=16;" vertex="1" parent="AUQUITsB97ih77B1ykuN-25">
          <mxGeometry y="216" width="200" as="geometry" />
        </mxCell>
        <mxCell id="AUQUITsB97ih77B1ykuN-43" value="&lt;font style=&quot;font-size: 16px;&quot;&gt;1..*&lt;/font&gt;" style="endArrow=open;html=1;endSize=12;startArrow=diamondThin;startSize=14;startFill=1;edgeStyle=orthogonalEdgeStyle;align=left;verticalAlign=bottom;rounded=0;fontSize=12;entryX=0.5;entryY=0;entryDx=0;entryDy=0;" edge="1" parent="WIyWlLk6GJQsqaUBKTNV-1" target="AUQUITsB97ih77B1ykuN-16">
          <mxGeometry x="0.0496" y="-11" relative="1" as="geometry">
            <mxPoint x="500" y="930" as="sourcePoint" />
            <mxPoint x="620" y="930" as="targetPoint" />
            <Array as="points">
              <mxPoint x="500" y="932" />
              <mxPoint x="500" y="970" />
              <mxPoint x="424" y="970" />
            </Array>
            <mxPoint x="1" as="offset" />
          </mxGeometry>
        </mxCell>
        <mxCell id="AUQUITsB97ih77B1ykuN-46" value="POSs" style="edgeLabel;html=1;align=center;verticalAlign=middle;resizable=0;points=[];fontSize=16;" vertex="1" connectable="0" parent="AUQUITsB97ih77B1ykuN-43">
          <mxGeometry x="-0.0384" y="-1" relative="1" as="geometry">
            <mxPoint x="15" y="21" as="offset" />
          </mxGeometry>
        </mxCell>
        <mxCell id="AUQUITsB97ih77B1ykuN-45" value="&lt;font style=&quot;font-size: 16px;&quot;&gt;1&lt;/font&gt;" style="endArrow=open;html=1;endSize=12;startArrow=diamondThin;startSize=14;startFill=1;edgeStyle=orthogonalEdgeStyle;align=left;verticalAlign=bottom;rounded=0;fontSize=12;entryX=0.404;entryY=0.014;entryDx=0;entryDy=0;exitX=0.551;exitY=0;exitDx=0;exitDy=0;exitPerimeter=0;entryPerimeter=0;" edge="1" parent="WIyWlLk6GJQsqaUBKTNV-1" source="AUQUITsB97ih77B1ykuN-15" target="AUQUITsB97ih77B1ykuN-10">
          <mxGeometry x="0.4041" y="10" relative="1" as="geometry">
            <mxPoint x="590" y="940" as="sourcePoint" />
            <mxPoint x="517" y="1020" as="targetPoint" />
            <Array as="points">
              <mxPoint x="589" y="970" />
              <mxPoint x="650" y="970" />
            </Array>
            <mxPoint as="offset" />
          </mxGeometry>
        </mxCell>
        <mxCell id="AUQUITsB97ih77B1ykuN-48" value="inventario" style="edgeLabel;html=1;align=center;verticalAlign=middle;resizable=0;points=[];fontSize=16;" vertex="1" connectable="0" parent="AUQUITsB97ih77B1ykuN-45">
          <mxGeometry x="0.0414" y="2" relative="1" as="geometry">
            <mxPoint x="-38" y="18" as="offset" />
          </mxGeometry>
        </mxCell>
        <mxCell id="AUQUITsB97ih77B1ykuN-49" style="edgeStyle=none;rounded=0;orthogonalLoop=1;jettySize=auto;html=1;exitX=0.346;exitY=1.006;exitDx=0;exitDy=0;entryX=1.03;entryY=0.302;entryDx=0;entryDy=0;fontSize=12;startSize=8;endSize=8;entryPerimeter=0;exitPerimeter=0;" edge="1" parent="WIyWlLk6GJQsqaUBKTNV-1" source="AUQUITsB97ih77B1ykuN-17" target="AUQUITsB97ih77B1ykuN-26">
          <mxGeometry relative="1" as="geometry">
            <mxPoint x="260" y="1169" as="targetPoint" />
            <Array as="points">
              <mxPoint x="400" y="1191" />
            </Array>
          </mxGeometry>
        </mxCell>
        <mxCell id="AUQUITsB97ih77B1ykuN-52" value="1" style="edgeLabel;html=1;align=center;verticalAlign=middle;resizable=0;points=[];fontSize=17;" vertex="1" connectable="0" parent="AUQUITsB97ih77B1ykuN-49">
          <mxGeometry x="0.0166" relative="1" as="geometry">
            <mxPoint x="-5" y="15" as="offset" />
          </mxGeometry>
        </mxCell>
        <mxCell id="AUQUITsB97ih77B1ykuN-50" value="datosCompra" style="text;html=1;align=center;verticalAlign=middle;resizable=0;points=[];autosize=1;strokeColor=none;fillColor=none;fontSize=16;" vertex="1" parent="WIyWlLk6GJQsqaUBKTNV-1">
          <mxGeometry x="224" y="1150" width="120" height="30" as="geometry" />
        </mxCell>
        <mxCell id="AUQUITsB97ih77B1ykuN-53" style="edgeStyle=none;rounded=0;orthogonalLoop=1;jettySize=auto;html=1;fontSize=12;startSize=8;endSize=8;" edge="1" parent="WIyWlLk6GJQsqaUBKTNV-1" source="AUQUITsB97ih77B1ykuN-11">
          <mxGeometry relative="1" as="geometry">
            <mxPoint x="970" y="1090" as="targetPoint" />
          </mxGeometry>
        </mxCell>
        <mxCell id="AUQUITsB97ih77B1ykuN-54" value="categorias" style="edgeLabel;html=1;align=center;verticalAlign=middle;resizable=0;points=[];fontSize=16;" vertex="1" connectable="0" parent="AUQUITsB97ih77B1ykuN-53">
          <mxGeometry x="-0.4199" y="-3" relative="1" as="geometry">
            <mxPoint x="37" y="8" as="offset" />
          </mxGeometry>
        </mxCell>
        <mxCell id="AUQUITsB97ih77B1ykuN-55" value="*" style="edgeLabel;html=1;align=center;verticalAlign=middle;resizable=0;points=[];fontSize=24;fontStyle=1" vertex="1" connectable="0" parent="AUQUITsB97ih77B1ykuN-53">
          <mxGeometry x="0.3836" y="2" relative="1" as="geometry">
            <mxPoint x="-29" y="-18" as="offset" />
          </mxGeometry>
        </mxCell>
        <mxCell id="AUQUITsB97ih77B1ykuN-56" value="&lt;font style=&quot;font-size: 20px;&quot;&gt;*&lt;/font&gt;" style="endArrow=open;html=1;endSize=12;startArrow=diamondThin;startSize=14;startFill=0;edgeStyle=orthogonalEdgeStyle;align=left;verticalAlign=bottom;rounded=0;fontSize=12;entryX=1;entryY=0.5;entryDx=0;entryDy=0;" edge="1" parent="WIyWlLk6GJQsqaUBKTNV-1" source="AUQUITsB97ih77B1ykuN-13" target="AUQUITsB97ih77B1ykuN-1">
          <mxGeometry x="-0.5742" y="24" relative="1" as="geometry">
            <mxPoint x="560" y="760" as="sourcePoint" />
            <mxPoint x="560" y="720" as="targetPoint" />
            <mxPoint y="-1" as="offset" />
          </mxGeometry>
        </mxCell>
        <mxCell id="AUQUITsB97ih77B1ykuN-57" value="cajeros&amp;nbsp;" style="edgeLabel;html=1;align=center;verticalAlign=middle;resizable=0;points=[];fontSize=16;" vertex="1" connectable="0" parent="AUQUITsB97ih77B1ykuN-56">
          <mxGeometry x="-0.0885" relative="1" as="geometry">
            <mxPoint x="-29" y="34" as="offset" />
          </mxGeometry>
        </mxCell>
        <mxCell id="AUQUITsB97ih77B1ykuN-60" value="&lt;font style=&quot;font-size: 15px;&quot;&gt;1&lt;/font&gt;" style="endArrow=open;html=1;endSize=12;startArrow=diamondThin;startSize=14;startFill=0;edgeStyle=orthogonalEdgeStyle;align=left;verticalAlign=bottom;rounded=0;fontSize=12;exitX=0.75;exitY=0;exitDx=0;exitDy=0;" edge="1" parent="WIyWlLk6GJQsqaUBKTNV-1" source="AUQUITsB97ih77B1ykuN-13">
          <mxGeometry x="-0.3112" y="5" relative="1" as="geometry">
            <mxPoint x="753.66" y="770" as="sourcePoint" />
            <mxPoint x="739.66" y="710" as="targetPoint" />
            <mxPoint as="offset" />
          </mxGeometry>
        </mxCell>
        <mxCell id="AUQUITsB97ih77B1ykuN-61" value="administrador" style="edgeLabel;html=1;align=center;verticalAlign=middle;resizable=0;points=[];fontSize=16;" vertex="1" connectable="0" parent="AUQUITsB97ih77B1ykuN-60">
          <mxGeometry x="-0.0885" relative="1" as="geometry">
            <mxPoint x="36" y="15" as="offset" />
          </mxGeometry>
        </mxCell>
        <mxCell id="AUQUITsB97ih77B1ykuN-62" value="&lt;font style=&quot;font-size: 19px;&quot;&gt;*&lt;/font&gt;" style="endArrow=open;html=1;endSize=12;startArrow=diamondThin;startSize=14;startFill=0;edgeStyle=orthogonalEdgeStyle;align=left;verticalAlign=bottom;rounded=0;fontSize=12;exitX=0.15;exitY=0.001;exitDx=0;exitDy=0;exitPerimeter=0;" edge="1" parent="WIyWlLk6GJQsqaUBKTNV-1" source="AUQUITsB97ih77B1ykuN-13" target="e-FcHB3rJm0YQ8q_vhJP-6">
          <mxGeometry x="-0.068" y="30" relative="1" as="geometry">
            <mxPoint x="383.69" y="775" as="sourcePoint" />
            <mxPoint x="369.69" y="715" as="targetPoint" />
            <mxPoint as="offset" />
            <Array as="points">
              <mxPoint x="469" y="750" />
              <mxPoint x="370" y="750" />
              <mxPoint x="370" y="662" />
            </Array>
          </mxGeometry>
        </mxCell>
        <mxCell id="AUQUITsB97ih77B1ykuN-63" value="clientes&amp;nbsp;" style="edgeLabel;html=1;align=center;verticalAlign=middle;resizable=0;points=[];fontSize=16;" vertex="1" connectable="0" parent="AUQUITsB97ih77B1ykuN-62">
          <mxGeometry x="-0.0885" relative="1" as="geometry">
            <mxPoint x="-30" y="10" as="offset" />
          </mxGeometry>
        </mxCell>
        <mxCell id="AUQUITsB97ih77B1ykuN-65" value="&lt;font style=&quot;font-size: 21px;&quot;&gt;*&lt;/font&gt;" style="endArrow=open;html=1;endSize=12;startArrow=diamondThin;startSize=14;startFill=1;edgeStyle=orthogonalEdgeStyle;align=left;verticalAlign=bottom;rounded=0;fontSize=12;exitX=1.01;exitY=0.334;exitDx=0;exitDy=0;exitPerimeter=0;" edge="1" parent="WIyWlLk6GJQsqaUBKTNV-1" source="jS6DH8Dr9qwqQI3Xkxyg-1" target="jS6DH8Dr9qwqQI3Xkxyg-11">
          <mxGeometry x="0.1439" y="5" relative="1" as="geometry">
            <mxPoint x="260" y="1518" as="sourcePoint" />
            <mxPoint x="520" y="1550" as="targetPoint" />
            <Array as="points">
              <mxPoint x="360" y="1435" />
              <mxPoint x="360" y="1435" />
            </Array>
            <mxPoint as="offset" />
          </mxGeometry>
        </mxCell>
        <mxCell id="AUQUITsB97ih77B1ykuN-92" value="productos" style="edgeLabel;html=1;align=center;verticalAlign=middle;resizable=0;points=[];fontSize=16;" vertex="1" connectable="0" parent="AUQUITsB97ih77B1ykuN-65">
          <mxGeometry x="0.1792" y="6" relative="1" as="geometry">
            <mxPoint x="-22" y="23" as="offset" />
          </mxGeometry>
        </mxCell>
        <mxCell id="AUQUITsB97ih77B1ykuN-68" value="CompraIndividual" style="swimlane;fontStyle=1;align=center;verticalAlign=top;childLayout=stackLayout;horizontal=1;startSize=26;horizontalStack=0;resizeParent=1;resizeParentMax=0;resizeLast=0;collapsible=1;marginBottom=0;whiteSpace=wrap;html=1;fontSize=16;" vertex="1" parent="WIyWlLk6GJQsqaUBKTNV-1">
          <mxGeometry x="432" y="1180" width="200" height="110" as="geometry" />
        </mxCell>
        <mxCell id="AUQUITsB97ih77B1ykuN-69" value="- productoVendido: Producto" style="text;strokeColor=none;fillColor=none;align=left;verticalAlign=top;spacingLeft=4;spacingRight=4;overflow=hidden;rotatable=0;points=[[0,0.5],[1,0.5]];portConstraint=eastwest;whiteSpace=wrap;html=1;fontSize=16;" vertex="1" parent="AUQUITsB97ih77B1ykuN-68">
          <mxGeometry y="26" width="200" height="84" as="geometry" />
        </mxCell>
        <mxCell id="AUQUITsB97ih77B1ykuN-70" value="" style="line;strokeWidth=1;fillColor=none;align=left;verticalAlign=middle;spacingTop=-1;spacingLeft=3;spacingRight=3;rotatable=0;labelPosition=right;points=[];portConstraint=eastwest;strokeColor=inherit;fontSize=16;" vertex="1" parent="AUQUITsB97ih77B1ykuN-68">
          <mxGeometry y="110" width="200" as="geometry" />
        </mxCell>
        <mxCell id="AUQUITsB97ih77B1ykuN-74" value="&lt;font style=&quot;font-size: 16px;&quot;&gt;1&lt;/font&gt;" style="endArrow=open;html=1;endSize=12;startArrow=diamondThin;startSize=14;startFill=0;edgeStyle=orthogonalEdgeStyle;align=left;verticalAlign=bottom;rounded=0;fontSize=12;curved=1;" edge="1" parent="WIyWlLk6GJQsqaUBKTNV-1" source="AUQUITsB97ih77B1ykuN-69" target="jS6DH8Dr9qwqQI3Xkxyg-10">
          <mxGeometry x="0.1429" y="14" relative="1" as="geometry">
            <mxPoint x="541.9100000000001" y="1550.17" as="sourcePoint" />
            <mxPoint x="443" y="1565.17" as="targetPoint" />
            <mxPoint as="offset" />
            <Array as="points">
              <mxPoint x="542" y="1520.17" />
              <mxPoint x="443" y="1520.17" />
            </Array>
          </mxGeometry>
        </mxCell>
        <mxCell id="AUQUITsB97ih77B1ykuN-75" value="productoVendido" style="edgeLabel;html=1;align=center;verticalAlign=middle;resizable=0;points=[];fontSize=16;" vertex="1" connectable="0" parent="AUQUITsB97ih77B1ykuN-74">
          <mxGeometry x="-0.0885" relative="1" as="geometry">
            <mxPoint x="-68" y="11" as="offset" />
          </mxGeometry>
        </mxCell>
        <mxCell id="AUQUITsB97ih77B1ykuN-81" value="" style="endArrow=block;endSize=16;endFill=0;html=1;rounded=0;fontSize=12;entryX=1.009;entryY=0.655;entryDx=0;entryDy=0;exitX=0;exitY=0.5;exitDx=0;exitDy=0;entryPerimeter=0;" edge="1" parent="WIyWlLk6GJQsqaUBKTNV-1" source="AUQUITsB97ih77B1ykuN-69" target="AUQUITsB97ih77B1ykuN-26">
          <mxGeometry width="160" relative="1" as="geometry">
            <mxPoint x="420" y="1532.7100000000003" as="sourcePoint" />
            <mxPoint x="492.79999999999995" y="1432.0020000000002" as="targetPoint" />
            <Array as="points">
              <mxPoint x="350" y="1248" />
            </Array>
          </mxGeometry>
        </mxCell>
        <mxCell id="AUQUITsB97ih77B1ykuN-83" value="" style="endArrow=block;endSize=16;endFill=0;html=1;rounded=0;fontSize=12;exitX=0.75;exitY=0;exitDx=0;exitDy=0;entryX=0.45;entryY=0.992;entryDx=0;entryDy=0;entryPerimeter=0;" edge="1" parent="WIyWlLk6GJQsqaUBKTNV-1" source="jS6DH8Dr9qwqQI3Xkxyg-0" target="AUQUITsB97ih77B1ykuN-26">
          <mxGeometry width="160" relative="1" as="geometry">
            <mxPoint x="80" y="1494.38" as="sourcePoint" />
            <mxPoint x="180" y="1390" as="targetPoint" />
            <Array as="points" />
          </mxGeometry>
        </mxCell>
        <mxCell id="AUQUITsB97ih77B1ykuN-86" value="" style="endArrow=block;endSize=16;endFill=0;html=1;rounded=0;fontSize=12;exitX=0;exitY=0;exitDx=0;exitDy=0;" edge="1" parent="WIyWlLk6GJQsqaUBKTNV-1" source="AUQUITsB97ih77B1ykuN-7">
          <mxGeometry width="160" relative="1" as="geometry">
            <mxPoint x="130" y="1630" as="sourcePoint" />
            <mxPoint x="50" y="1504" as="targetPoint" />
            <Array as="points">
              <mxPoint x="50" y="1624" />
            </Array>
          </mxGeometry>
        </mxCell>
        <mxCell id="AUQUITsB97ih77B1ykuN-88" value="" style="endArrow=block;endSize=16;endFill=0;html=1;rounded=0;fontSize=12;entryX=0.378;entryY=0.997;entryDx=0;entryDy=0;entryPerimeter=0;exitX=1;exitY=0;exitDx=0;exitDy=0;" edge="1" parent="WIyWlLk6GJQsqaUBKTNV-1" source="e-FcHB3rJm0YQ8q_vhJP-0" target="jS6DH8Dr9qwqQI3Xkxyg-1">
          <mxGeometry width="160" relative="1" as="geometry">
            <mxPoint x="-70" y="1604.38" as="sourcePoint" />
            <mxPoint x="3" y="1504" as="targetPoint" />
            <Array as="points">
              <mxPoint x="10" y="1540" />
            </Array>
          </mxGeometry>
        </mxCell>
        <mxCell id="AUQUITsB97ih77B1ykuN-95" style="edgeStyle=none;rounded=0;orthogonalLoop=1;jettySize=auto;html=1;exitX=1;exitY=0;exitDx=0;exitDy=0;entryX=0.339;entryY=1.011;entryDx=0;entryDy=0;entryPerimeter=0;fontSize=12;startSize=8;endSize=8;" edge="1" parent="WIyWlLk6GJQsqaUBKTNV-1" source="AUQUITsB97ih77B1ykuN-25" target="e-FcHB3rJm0YQ8q_vhJP-6">
          <mxGeometry relative="1" as="geometry" />
        </mxCell>
        <mxCell id="AUQUITsB97ih77B1ykuN-96" value="cliente" style="edgeLabel;html=1;align=center;verticalAlign=middle;resizable=0;points=[];fontSize=16;" vertex="1" connectable="0" parent="AUQUITsB97ih77B1ykuN-95">
          <mxGeometry x="-0.1382" y="2" relative="1" as="geometry">
            <mxPoint y="17" as="offset" />
          </mxGeometry>
        </mxCell>
        <mxCell id="AUQUITsB97ih77B1ykuN-97" value="1" style="edgeLabel;html=1;align=center;verticalAlign=middle;resizable=0;points=[];fontSize=16;" vertex="1" connectable="0" parent="AUQUITsB97ih77B1ykuN-95">
          <mxGeometry x="0.1641" y="6" relative="1" as="geometry">
            <mxPoint x="12" y="116" as="offset" />
          </mxGeometry>
        </mxCell>
        <mxCell id="AUQUITsB97ih77B1ykuN-98" style="edgeStyle=none;curved=1;rounded=0;orthogonalLoop=1;jettySize=auto;html=1;exitX=0.5;exitY=0;exitDx=0;exitDy=0;fontSize=12;startSize=8;endSize=8;" edge="1" parent="WIyWlLk6GJQsqaUBKTNV-1">
          <mxGeometry relative="1" as="geometry">
            <mxPoint x="1126.83" y="780" as="sourcePoint" />
            <mxPoint x="1126.83" y="780" as="targetPoint" />
          </mxGeometry>
        </mxCell>
        <mxCell id="AUQUITsB97ih77B1ykuN-99" style="edgeStyle=none;rounded=0;orthogonalLoop=1;jettySize=auto;html=1;entryX=0.439;entryY=1.046;entryDx=0;entryDy=0;entryPerimeter=0;fontSize=12;startSize=8;endSize=8;" edge="1" parent="WIyWlLk6GJQsqaUBKTNV-1" target="AUQUITsB97ih77B1ykuN-20">
          <mxGeometry relative="1" as="geometry">
            <mxPoint x="600" y="1430" as="sourcePoint" />
            <Array as="points">
              <mxPoint x="1081" y="1430" />
            </Array>
          </mxGeometry>
        </mxCell>
        <mxCell id="AUQUITsB97ih77B1ykuN-100" value="categoria&amp;nbsp;&amp;nbsp;" style="edgeLabel;html=1;align=center;verticalAlign=middle;resizable=0;points=[];fontSize=16;" vertex="1" connectable="0" parent="AUQUITsB97ih77B1ykuN-99">
          <mxGeometry x="-0.2242" y="-3" relative="1" as="geometry">
            <mxPoint x="38" y="6" as="offset" />
          </mxGeometry>
        </mxCell>
        <mxCell id="AUQUITsB97ih77B1ykuN-106" value="1" style="edgeLabel;html=1;align=center;verticalAlign=middle;resizable=0;points=[];fontSize=23;" vertex="1" connectable="0" parent="AUQUITsB97ih77B1ykuN-99">
          <mxGeometry x="-0.2994" y="3" relative="1" as="geometry">
            <mxPoint x="68" y="-17" as="offset" />
          </mxGeometry>
        </mxCell>
        <mxCell id="AUQUITsB97ih77B1ykuN-107" style="edgeStyle=none;rounded=0;orthogonalLoop=1;jettySize=auto;html=1;fontSize=12;startSize=8;endSize=8;exitX=0.752;exitY=1.06;exitDx=0;exitDy=0;exitPerimeter=0;" edge="1" parent="WIyWlLk6GJQsqaUBKTNV-1" source="AUQUITsB97ih77B1ykuN-20">
          <mxGeometry relative="1" as="geometry">
            <mxPoint x="620" y="1530" as="targetPoint" />
            <Array as="points">
              <mxPoint x="1160" y="1530" />
            </Array>
          </mxGeometry>
        </mxCell>
        <mxCell id="AUQUITsB97ih77B1ykuN-109" value="productos" style="edgeLabel;html=1;align=center;verticalAlign=middle;resizable=0;points=[];fontSize=16;" vertex="1" connectable="0" parent="AUQUITsB97ih77B1ykuN-107">
          <mxGeometry x="0.1145" y="2" relative="1" as="geometry">
            <mxPoint y="-22" as="offset" />
          </mxGeometry>
        </mxCell>
        <mxCell id="AUQUITsB97ih77B1ykuN-110" value="*" style="edgeLabel;html=1;align=center;verticalAlign=middle;resizable=0;points=[];fontSize=20;" vertex="1" connectable="0" parent="AUQUITsB97ih77B1ykuN-107">
          <mxGeometry x="-0.0169" relative="1" as="geometry">
            <mxPoint x="-17" y="30" as="offset" />
          </mxGeometry>
        </mxCell>
      </root>
    </mxGraphModel>
  </diagram>
</mxfile>
